<svg width="58" height="58" viewBox="0 0 58 58" fill="none" xmlns="http://www.w3.org/2000/svg">
<path d="M50.067 28.659C49.4382 28.6333 48.9114 29.1253 48.8879 29.7529C48.8819 29.9153 48.8737 30.0772 48.8639 30.2386C48.8251 30.8655 49.3019 31.4051 49.9288 31.4439C49.9527 31.4455 49.9765 31.4462 50 31.4462C50.596 31.4462 51.0968 30.9821 51.134 30.3791C51.1451 30.1994 51.1541 30.0191 51.1609 29.8382C51.1844 29.2106 50.6947 28.6826 50.067 28.659Z" fill="#1645C0"/>
<path d="M56.2624 19.0719C56.4374 18.7349 56.4367 18.324 56.24 17.9815C56.0996 17.7371 55.8787 17.5614 55.626 17.4739C54.1924 14.1641 52.1332 11.1209 49.5059 8.49371C44.0287 3.01645 36.7462 0 29 0C21.2538 0 13.9713 3.01645 8.49394 8.49394C3.01657 13.9714 0 21.2538 0 29C0 33.122 0.857652 37.1112 2.48245 40.7683C1.91796 41.3953 1.60893 42.1978 1.60893 43.048C1.60893 43.9594 1.96384 44.8161 2.60819 45.4604C3.27338 46.1256 4.147 46.458 5.02062 46.458C5.27415 46.458 5.52745 46.4291 5.77598 46.373C6.59988 47.4707 7.50624 48.5182 8.49394 49.5059C9.89897 50.911 11.4248 52.1511 13.0449 53.2227C12.6491 54.4107 12.9226 55.7745 13.8664 56.7186C14.5316 57.3837 15.4052 57.7161 16.2789 57.7161C17.1525 57.7161 18.0262 57.3836 18.6913 56.7186L19.1281 56.2818C22.2516 57.4101 25.5803 58 29 58C36.7462 58 44.0287 54.9835 49.5061 49.5061C54.9834 44.0286 58 36.7462 58 29C58 25.5598 57.4037 22.2116 56.2624 19.0719ZM2.27446 29C2.27446 14.2636 14.2635 2.27446 29 2.27446C30.7274 2.27446 32.4158 2.44268 34.0525 2.75783L30.0759 6.73423C29.6311 6.77331 29.2185 6.8235 29 6.8235C16.7719 6.8235 6.8235 16.7719 6.8235 29C6.8235 31.246 7.16062 33.4145 7.78446 35.4592L4.22596 39.0177C2.96933 35.9222 2.27446 32.5411 2.27446 29ZM24.9926 15.311L25.0237 15.8138C25.113 17.2538 24.5791 18.6646 23.559 19.6847L9.63729 33.6062C9.28532 32.1272 9.09796 30.5853 9.09796 29C9.09796 18.4742 17.312 9.83225 27.6665 9.14372L27.1191 9.6911C25.6382 11.172 24.8631 13.2205 24.9926 15.311ZM4.21644 43.8521C4.00166 43.6373 3.88339 43.3518 3.88339 43.048C3.88339 42.7442 4.00166 42.4586 4.21644 42.2438L25.1672 21.2931C26.6482 19.8121 27.4234 17.7636 27.2938 15.6733L27.2626 15.1704C27.1735 13.7305 27.7072 12.3197 28.7274 11.2996L36.6175 3.40977C36.6508 3.37657 36.6807 3.34123 36.709 3.30509L36.9255 3.47422C37.6368 3.69557 38.3353 3.94593 39.0197 4.22392L30.9414 12.3023C30.4974 12.7464 30.4974 13.4665 30.9414 13.9107C31.1634 14.1327 31.4546 14.2438 31.7456 14.2438C32.0366 14.2438 32.3277 14.1326 32.5498 13.9107L41.0203 5.44022C41.0872 5.37327 41.1428 5.29941 41.1896 5.22181C41.9007 5.58794 42.5928 5.98544 43.2654 6.41172L42.6288 7.04847C42.6288 7.04847 42.6288 7.04847 42.6286 7.04847L34.1581 15.519C33.7141 15.963 33.7141 16.6832 34.1581 17.1273C34.3802 17.3494 34.6713 17.4604 34.9623 17.4604C35.2534 17.4604 35.5445 17.3492 35.7665 17.1273L45.1622 7.73156C48.6431 10.3831 51.4557 13.8678 53.301 17.8861L50.0469 18.7427C44.5008 20.2027 39.426 23.1179 35.3708 27.173L30.7254 31.8186C29.8164 32.7275 29.3492 33.9843 29.4436 35.2663C29.4895 35.8882 29.2628 36.4977 28.8219 36.9387L19.3594 46.4011C16.6676 44.9041 14.3578 42.8028 12.6148 40.2792L28.3842 24.5098C29.4043 23.4895 30.8153 22.957 32.2552 23.0448L32.758 23.0758C34.8484 23.2062 36.8968 22.4303 38.3779 20.9493L47.454 11.8732C47.898 11.4292 47.898 10.709 47.454 10.2649C47.0099 9.82092 46.2898 9.82092 45.8456 10.2649L36.7695 19.341C35.7495 20.3612 34.3389 20.8943 32.8985 20.8059L32.3957 20.7749C30.3059 20.6444 28.2569 21.4205 26.7758 22.9014L5.82481 43.8521C5.38154 44.2956 4.66005 44.2953 4.21644 43.8521ZM7.73269 45.1609L10.9827 41.911C12.7687 44.3959 15.0549 46.4967 17.6932 48.067L14.3931 51.3672C11.8353 49.6907 9.58155 47.5883 7.73269 45.1609ZM17.0832 55.1102C16.6397 55.5538 15.9182 55.5536 15.4748 55.1103C15.0314 54.667 15.0314 53.9454 15.4748 53.5021L30.4301 38.5469C31.339 37.6378 31.8063 36.3811 31.7118 35.0991C31.666 34.4773 31.8926 33.8675 32.3336 33.4266L36.979 28.7811C40.7498 25.0103 45.4687 22.2996 50.6257 20.9422L51.4749 20.7186L17.0832 55.1102ZM29 55.7255C26.1886 55.7255 23.4778 55.2882 20.9308 54.4793L24.661 50.7491C26.0647 51.0288 27.5153 51.1765 29.0001 51.1765C33.2954 51.1765 37.4653 49.9412 41.059 47.6043C44.5579 45.329 47.3392 42.1334 49.1019 38.3628C49.3679 37.7938 49.1224 37.1169 48.5534 36.851C47.9841 36.5847 47.3074 36.8305 47.0415 37.3995C43.7745 44.387 36.6928 48.9019 29 48.9019C28.2042 48.9019 27.4195 48.8539 26.6481 48.762L54.4789 20.9313C55.2875 23.4783 55.7255 26.1887 55.7255 28.9999C55.7255 43.7364 43.7365 55.7255 29 55.7255Z" fill="#1645C0"/>
</svg>
